<?xml version="1.0" encoding="UTF-8"?>
<svg version="1.1" xmlns="http://www.w3.org/2000/svg" width="256" height="256">
<path d="M0 0 C2.31188663 3.10659767 2.96438805 5.14531318 3.125 9 C1.71693997 12.75482676 -0.24239666 14.25202867 -3.40625 16.60546875 C-5.28502887 18.01222078 -5.28502887 18.01222078 -6 21 C-5.2575 20.505 -4.515 20.01 -3.75 19.5 C-1 18 -1 18 3 18 C3.07431567 24.15638608 3.12868084 30.31250935 3.16479492 36.46923828 C3.17985469 38.56238353 3.20030671 40.65549736 3.22631836 42.74853516 C3.26282501 45.76212328 3.27975473 48.77529312 3.29296875 51.7890625 C3.30845261 52.72054108 3.32393646 53.65201965 3.33988953 54.61172485 C3.34123722 59.84839692 2.9283298 63.46756308 0 68 C-2 70 -2 70 -4.05859375 70.046875 C-4.84363281 69.94890625 -5.62867187 69.8509375 -6.4375 69.75 C-7.21996094 69.66234375 -8.00242187 69.5746875 -8.80859375 69.484375 C-11 69 -11 69 -14 67 C-14.6875 63.875 -14.6875 63.875 -15 61 C-16.216875 61.268125 -17.43375 61.53625 -18.6875 61.8125 C-20.8984375 62.09375 -20.8984375 62.09375 -23 62 C-25.8125 59.8125 -25.8125 59.8125 -28 57 C-28.61875 56.34 -29.2375 55.68 -29.875 55 C-31 53 -31 53 -30.8125 50.4375 C-30 48 -30 48 -28 45 C-31.465 43.515 -31.465 43.515 -35 42 C-35.08075665 39.70890403 -35.13907731 37.41700733 -35.1875 35.125 C-35.22230469 33.84882812 -35.25710937 32.57265625 -35.29296875 31.2578125 C-35.19628906 30.18273437 -35.09960938 29.10765625 -35 28 C-32 26 -32 26 -28 26 C-28.515625 25.113125 -29.03125 24.22625 -29.5625 23.3125 C-31.15990875 19.63151462 -31.14263736 18.71639974 -30 15 C-28.06580231 11.89888965 -25.84890514 9.29656639 -23 7 C-19.61898436 6.93620725 -17.96548614 7.51725693 -15 9 C-14.896875 8.071875 -14.79375 7.14375 -14.6875 6.1875 C-13.98364106 2.92415402 -13.66979459 1.87874434 -11 0 C-7.2886339 -1.59058547 -3.8196681 -1.04172766 0 0 Z M-16.140625 19.73046875 C-19.02954935 24.81036303 -18.16976942 29.61229786 -17.75 35.3125 C-17.68425781 36.43462891 -17.61851563 37.55675781 -17.55078125 38.71289062 C-17.38611019 41.47701194 -17.20190641 44.2383902 -17 47 C-15.35 47 -13.7 47 -12 47 C-12 37.43 -12 27.86 -12 18 C-14.19954162 17.79044421 -14.19954162 17.79044421 -16.140625 19.73046875 Z " fill="#EE622D" transform="translate(43,90)"/>
<path d="M0 0 C3.3125 0.1875 3.3125 0.1875 7 1 C7.474375 1.804375 7.94875 2.60875 8.4375 3.4375 C9.2109375 4.7059375 9.2109375 4.7059375 10 6 C11.8871875 6.37125 11.8871875 6.37125 13.8125 6.75 C17.66891696 7.51132217 19.15887951 8.87573366 21.4375 12.0625 C24.23345568 16.73000325 24.82879694 20.6071035 25 26 C25.99 26.33 26.98 26.66 28 27 C28 31.62 28 36.24 28 41 C26.515 41.495 26.515 41.495 25 42 C24.14954379 44.59620614 24.14954379 44.59620614 23.625 47.6875 C22.35838866 53.16526761 21.39216096 56.40641376 17 60 C13.1875 60.375 13.1875 60.375 10 60 C9.2884375 61.4540625 9.2884375 61.4540625 8.5625 62.9375 C7 66 7 66 6 67 C3.66702567 67.04092937 1.33294775 67.04241723 -1 67 C-3.20970694 60.76366722 -3.29080432 54.98318845 -3.265625 48.40625 C-3.26753845 47.30075806 -3.2694519 46.19526611 -3.27142334 45.05627441 C-3.27278012 42.72647879 -3.26911922 40.39667549 -3.26074219 38.06689453 C-3.25003575 34.51187063 -3.26065501 30.95735204 -3.2734375 27.40234375 C-3.27211582 25.13281139 -3.26955324 22.86327934 -3.265625 20.59375 C-3.26967346 19.53627563 -3.27372192 18.47880127 -3.27789307 17.38928223 C-3.23806886 11.08535149 -2.86117823 5.72235646 0 0 Z M9 42 C8.67 42.66 8.34 43.32 8 44 C8.66 44 9.32 44 10 44 C9.67 43.34 9.34 42.68 9 42 Z M7 44 C8 46 8 46 8 46 Z M5 46 C6 48 6 48 6 48 Z M2 48 C2.66 48.66 3.32 49.32 4 50 C4.33 49.34 4.66 48.68 5 48 C4.01 48 3.02 48 2 48 Z " fill="#F18A60" transform="translate(52,91)"/>
<path d="M0 0 C2.31188663 3.10659767 2.96438805 5.14531318 3.125 9 C1.71693997 12.75482676 -0.24239666 14.25202867 -3.40625 16.60546875 C-5.28502887 18.01222078 -5.28502887 18.01222078 -6 21 C-5.2575 20.505 -4.515 20.01 -3.75 19.5 C-1 18 -1 18 3 18 C3.07431567 24.15638608 3.12868084 30.31250935 3.16479492 36.46923828 C3.17985469 38.56238353 3.20030671 40.65549736 3.22631836 42.74853516 C3.26282501 45.76212328 3.27975473 48.77529312 3.29296875 51.7890625 C3.30845261 52.72054108 3.32393646 53.65201965 3.33988953 54.61172485 C3.34123722 59.84839692 2.9283298 63.46756308 0 68 C-2 70 -2 70 -4.05859375 70.046875 C-4.84363281 69.94890625 -5.62867187 69.8509375 -6.4375 69.75 C-7.21996094 69.66234375 -8.00242187 69.5746875 -8.80859375 69.484375 C-11 69 -11 69 -14 67 C-14.6875 63.875 -14.6875 63.875 -15 61 C-16.216875 61.268125 -17.43375 61.53625 -18.6875 61.8125 C-20.8984375 62.09375 -20.8984375 62.09375 -23 62 C-25.8125 59.8125 -25.8125 59.8125 -28 57 C-28.61875 56.34 -29.2375 55.68 -29.875 55 C-31 53 -31 53 -30.8125 50.4375 C-30 48 -30 48 -28 45 C-31.465 43.515 -31.465 43.515 -35 42 C-35.08075665 39.70890403 -35.13907731 37.41700733 -35.1875 35.125 C-35.22230469 33.84882812 -35.25710937 32.57265625 -35.29296875 31.2578125 C-35.19628906 30.18273437 -35.09960938 29.10765625 -35 28 C-32 26 -32 26 -28 26 C-28.515625 25.113125 -29.03125 24.22625 -29.5625 23.3125 C-31.15990875 19.63151462 -31.14263736 18.71639974 -30 15 C-28.06580231 11.89888965 -25.84890514 9.29656639 -23 7 C-19.61898436 6.93620725 -17.96548614 7.51725693 -15 9 C-14.896875 8.071875 -14.79375 7.14375 -14.6875 6.1875 C-13.98364106 2.92415402 -13.66979459 1.87874434 -11 0 C-7.2886339 -1.59058547 -3.8196681 -1.04172766 0 0 Z M-16.140625 19.73046875 C-19.02954935 24.81036303 -18.16976942 29.61229786 -17.75 35.3125 C-17.68425781 36.43462891 -17.61851563 37.55675781 -17.55078125 38.71289062 C-17.38611019 41.47701194 -17.20190641 44.2383902 -17 47 C-15.35 47 -13.7 47 -12 47 C-12 37.43 -12 27.86 -12 18 C-14.19954162 17.79044421 -14.19954162 17.79044421 -16.140625 19.73046875 Z M-9 20 C-10.35700647 22.71401294 -10.1123861 24.84846316 -10.09765625 27.8828125 C-10.09282227 29.63271484 -10.09282227 29.63271484 -10.08789062 31.41796875 C-10.07951172 32.64128906 -10.07113281 33.86460938 -10.0625 35.125 C-10.05798828 36.35605469 -10.05347656 37.58710937 -10.04882812 38.85546875 C-10.0370133 41.90369392 -10.02054028 44.95182314 -10 48 C-12.97 48 -15.94 48 -19 48 C-19 40.74 -19 33.48 -19 26 C-24.1329496 24.97158752 -24.1329496 24.97158752 -28.75 26.25 C-29.52859375 26.50265625 -30.3071875 26.7553125 -31.109375 27.015625 C-33.35513579 27.90637165 -33.35513579 27.90637165 -34 31 C-34.11632729 32.51766539 -34.17496239 34.0404346 -34.1875 35.5625 C-34.20167969 36.34753906 -34.21585938 37.13257812 -34.23046875 37.94140625 C-34.19167509 40.2243545 -34.19167509 40.2243545 -32 42 C-29.42938689 42.64767793 -29.42938689 42.64767793 -27 43 C-27.51139099 45.55695495 -28.00538932 48.01658251 -28.8125 50.5 C-29.27992551 53.20194637 -29.27992551 53.20194637 -27.125 55.6875 C-26.42375 56.450625 -25.7225 57.21375 -25 58 C-24.67 58.66 -24.34 59.32 -24 60 C-22.02 60 -20.04 60 -18 60 C-18 59.34 -18 58.68 -18 58 C-16.515 58.495 -16.515 58.495 -15 59 C-14.71125 60.134375 -14.4225 61.26875 -14.125 62.4375 C-13.38039945 66.06941776 -13.38039945 66.06941776 -10.8125 67.5 C-7.20669868 68.14103135 -4.54072675 67.93528631 -1 67 C0.83232278 64.24872659 1.24720334 62.04694164 1.22705078 58.78222656 C1.22682419 57.5514035 1.22682419 57.5514035 1.22659302 56.29571533 C1.21110916 54.98144562 1.21110916 54.98144562 1.1953125 53.640625 C1.19106766 52.28405792 1.19106766 52.28405792 1.18673706 50.90008545 C1.17555782 48.01658805 1.15045733 45.13340325 1.125 42.25 C1.11496728 40.29297324 1.10584194 38.33594161 1.09765625 36.37890625 C1.07562585 31.58581738 1.04111144 26.79296166 1 22 C-2.31262111 21.14303932 -5.62007831 20.53771481 -9 20 Z " fill="#E96533" transform="translate(43,90)"/>
<path d="M0 0 C4.1148249 3.06423131 5.9953955 5.97697752 7 11 C6.67 13.31 6.34 15.62 6 18 C0.72 18 -4.56 18 -10 18 C-6.62486722 22.16606483 -6.62486722 22.16606483 -3.421875 22.390625 C-2.54015625 22.34421875 -1.6584375 22.2978125 -0.75 22.25 C0.58804688 22.19585937 0.58804688 22.19585937 1.953125 22.140625 C2.62859375 22.09421875 3.3040625 22.0478125 4 22 C4.33 23.98 4.66 25.96 5 28 C0.21767028 30.82438767 -4.5985269 30.51366163 -10 30 C-14.27381381 28.30828203 -16.00330407 26.09322665 -18 22 C-19.87903066 16.87537092 -19.59234048 11.75321301 -17.375 6.8125 C-13.33574279 -0.42157041 -7.77495554 -2.46732906 0 0 Z M-7 6 C-8.81299492 7.22954016 -8.81299492 7.22954016 -10 9 C-10 9.66 -10 10.32 -10 11 C-7.36 11 -4.72 11 -2 11 C-2.33 9.68 -2.66 8.36 -3 7 C-4.83700789 6.22757731 -4.83700789 6.22757731 -7 6 Z " fill="#EA632F" transform="translate(242,103)"/>
<path d="M0 0 C3.15930362 2.4110475 4.28215099 4.16558321 5 8 C5.09012193 9.64787094 5.1306289 11.29888671 5.1328125 12.94921875 C5.13474609 14.34430664 5.13474609 14.34430664 5.13671875 15.76757812 C5.13285156 16.73115234 5.12898438 17.69472656 5.125 18.6875 C5.13080078 20.15026367 5.13080078 20.15026367 5.13671875 21.64257812 C5.13542969 22.56876953 5.13414062 23.49496094 5.1328125 24.44921875 C5.13168457 25.29830811 5.13055664 26.14739746 5.12939453 27.0222168 C5 29 5 29 4 30 C0.5 30.125 0.5 30.125 -3 30 C-4.61780157 28.38219843 -4.22272147 26.54364482 -4.31640625 24.30859375 C-4.37924805 22.89223633 -4.37924805 22.89223633 -4.44335938 21.44726562 C-4.48267578 20.45404297 -4.52199219 19.46082031 -4.5625 18.4375 C-4.60568359 17.44041016 -4.64886719 16.44332031 -4.69335938 15.41601562 C-4.79980298 12.9441585 -4.90181928 10.4721969 -5 8 C-6.66611905 7.957279 -8.33382885 7.95936168 -10 8 C-11.45942841 9.22750423 -11.45942841 9.22750423 -11.0625 12.9296875 C-11.03832606 15.41557424 -10.99959534 17.90101947 -10.9609375 20.38671875 C-10.95320312 21.18464844 -10.94546875 21.98257813 -10.9375 22.8046875 C-10.92589844 23.53671387 -10.91429687 24.26874023 -10.90234375 25.02294922 C-11 27 -11 27 -12 30 C-14.33294775 30.04241723 -16.66702567 30.04092937 -19 30 C-20 29 -20 29 -20.11352539 26.22436523 C-20.10828857 25.01466064 -20.10305176 23.80495605 -20.09765625 22.55859375 C-20.09443359 21.25341797 -20.09121094 19.94824219 -20.08789062 18.60351562 C-20.07953401 17.2148431 -20.07106905 15.82617123 -20.0625 14.4375 C-20.05748666 13.04492344 -20.05292347 11.65234519 -20.04882812 10.25976562 C-20.03699434 6.8398013 -20.0205088 3.41992156 -20 0 C-16.66666667 0 -13.33333333 0 -10 0 C-6.19426871 -1.2685771 -3.89430952 -0.88817586 0 0 Z " fill="#E86433" transform="translate(215,103)"/>
<path d="M0 0 C-0.33 2.31 -0.66 4.62 -1 7 C-3.01822917 6.70703125 -5.03645833 6.4140625 -7.0546875 6.12109375 C-9.08140667 5.8315703 -9.08140667 5.8315703 -11 7 C-10.3473941 10.0520788 -10.3473941 10.0520788 -8.2578125 11.02734375 C-7.55398437 11.32769531 -6.85015625 11.62804687 -6.125 11.9375 C-0.44112972 14.66738752 -0.44112972 14.66738752 1 18 C1.51476521 21.11198965 1.60839385 23.89719134 1 27 C-1.18159145 29.75569447 -2.87177494 31.43588747 -6 33 C-7.78859511 33.12207871 -9.58228381 33.17548448 -11.375 33.1875 C-12.33148438 33.20167969 -13.28796875 33.21585938 -14.2734375 33.23046875 C-17.03010017 32.99745572 -18.64947395 32.40920164 -21 31 C-20.67 28.69 -20.34 26.38 -20 24 C-16.37 24.33 -12.74 24.66 -9 25 C-8.67 23.68 -8.34 22.36 -8 21 C-8.92232422 20.51080078 -8.92232422 20.51080078 -9.86328125 20.01171875 C-11.07564453 19.35623047 -11.07564453 19.35623047 -12.3125 18.6875 C-13.11300781 18.25824219 -13.91351563 17.82898438 -14.73828125 17.38671875 C-16.90449014 16.05855959 -18.45092569 15.00842126 -20 13 C-20.68880655 9.93481083 -20.58893897 7.0797726 -20 4 C-14.72010177 -2.8495977 -7.69552624 -3.73116424 0 0 Z " fill="#EC632F" transform="translate(133,100)"/>
<path d="M0 0 C2.64 0 5.28 0 8 0 C8 9.9 8 19.8 8 30 C12.29 30 16.58 30 21 30 C21 32.64 21 35.28 21 38 C14.07 38 7.14 38 0 38 C0 25.46 0 12.92 0 0 Z " fill="#EA6430" transform="translate(158,95)"/>
<path d="M0 0 C0 11.55 0 23.1 0 35 C-2.31 35 -4.62 35 -7 35 C-8.71443219 33.28556781 -8.23052967 30.99554759 -8.31640625 28.65234375 C-8.35830078 27.57275391 -8.40019531 26.49316406 -8.44335938 25.38085938 C-8.48267578 24.24455078 -8.52199219 23.10824219 -8.5625 21.9375 C-8.60568359 20.79732422 -8.64886719 19.65714844 -8.69335938 18.48242188 C-8.79982839 15.65507805 -8.90184207 12.82764262 -9 10 C-10.65 10.33 -12.3 10.66 -14 11 C-14.66 9.02 -15.32 7.04 -16 5 C-14.65767194 4.14772822 -13.30034127 3.31906988 -11.9375 2.5 C-11.18339844 2.0359375 -10.42929688 1.571875 -9.65234375 1.09375 C-7 0 -7 0 0 0 Z " fill="#D8734C" transform="translate(106,98)"/>
<path d="M0 0 C2.51542767 1.85922915 3.07334347 3.22434472 4.0625 6.25 C3.98467223 10.91966595 2.64396119 12.33205061 -0.45703125 15.6171875 C-2 17 -2 17 -4 18 C-4.33 18.99 -4.66 19.98 -5 21 C-4.2575 20.505 -3.515 20.01 -2.75 19.5 C0 18 0 18 4 18 C4.07431567 24.15638608 4.12868084 30.31250935 4.16479492 36.46923828 C4.17985469 38.56238353 4.20030671 40.65549736 4.22631836 42.74853516 C4.26282501 45.76212328 4.27975473 48.77529312 4.29296875 51.7890625 C4.30845261 52.72054108 4.32393646 53.65201965 4.33988953 54.61172485 C4.34123722 59.84839692 3.9283298 63.46756308 1 68 C-1 70 -1 70 -3.05859375 70.046875 C-3.84363281 69.94890625 -4.62867187 69.8509375 -5.4375 69.75 C-6.21996094 69.66234375 -7.00242187 69.5746875 -7.80859375 69.484375 C-10 69 -10 69 -13 67 C-13.6875 63.875 -13.6875 63.875 -14 61 C-15.216875 61.268125 -16.43375 61.53625 -17.6875 61.8125 C-19.8984375 62.09375 -19.8984375 62.09375 -22 62 C-24.8125 59.8125 -24.8125 59.8125 -27 57 C-27.61875 56.34 -28.2375 55.68 -28.875 55 C-30 53 -30 53 -29.8125 50.4375 C-29 48 -29 48 -27 45 C-30.465 43.515 -30.465 43.515 -34 42 C-34.08075665 39.70890403 -34.13907731 37.41700733 -34.1875 35.125 C-34.22230469 33.84882812 -34.25710937 32.57265625 -34.29296875 31.2578125 C-34.19628906 30.18273437 -34.09960938 29.10765625 -34 28 C-31 26 -31 26 -27 26 C-27.515625 25.113125 -28.03125 24.22625 -28.5625 23.3125 C-30.15819095 19.63547303 -30.17571184 18.70801426 -29 15 C-27.37109375 12.76171875 -27.37109375 12.76171875 -25.4375 10.6875 C-24.79683594 9.99011719 -24.15617187 9.29273437 -23.49609375 8.57421875 C-22.75552734 7.79498047 -22.75552734 7.79498047 -22 7 C-20.68 7.33 -19.36 7.66 -18 8 C-19.175625 8.61875 -19.175625 8.61875 -20.375 9.25 C-23.11507772 11.07671848 -23.73335347 12.07696955 -25 15 C-25.99 15.495 -25.99 15.495 -27 16 C-26.67 19.63 -26.34 23.26 -26 27 C-27.98 27.33 -29.96 27.66 -32 28 C-32 31.96 -32 35.92 -32 40 C-29.69 40.99 -27.38 41.98 -25 43 C-25.51139099 45.55695495 -26.00538932 48.01658251 -26.8125 50.5 C-27.28564931 53.21169568 -27.28564931 53.21169568 -25.0625 55.6875 C-24.381875 56.450625 -23.70125 57.21375 -23 58 C-23 58.66 -23 59.32 -23 60 C-21.02 60 -19.04 60 -17 60 C-17 59.34 -17 58.68 -17 58 C-15.68 58.33 -14.36 58.66 -13 59 C-12.67 61.31 -12.34 63.62 -12 66 C-10.37585622 66.19477739 -8.75063577 66.38059458 -7.125 66.5625 C-6.22007813 66.66691406 -5.31515625 66.77132812 -4.3828125 66.87890625 C-1.98346943 67.19674852 -1.98346943 67.19674852 0 66 C0.91035504 63.26893489 1.12215713 61.70106761 1.11352539 58.89575195 C1.11344986 58.07512772 1.11337433 57.25450348 1.11329651 56.40901184 C1.10813522 55.52767075 1.10297394 54.64632965 1.09765625 53.73828125 C1.0962413 52.83248825 1.09482635 51.92669525 1.09336853 50.99345398 C1.08777001 48.09976909 1.07521781 45.20616151 1.0625 42.3125 C1.05748481 40.35091258 1.05292193 38.38932394 1.04882812 36.42773438 C1.03780107 31.61845979 1.02053747 26.809243 1 22 C-0.7015625 22.0309375 -0.7015625 22.0309375 -2.4375 22.0625 C-6 22 -6 22 -7 21 C-7.04063832 19.33382885 -7.042721 17.66611905 -7 16 C-5.68 16 -4.36 16 -3 16 C-3 15.34 -3 14.68 -3 14 C-2.34 13.4225 -1.68 12.845 -1 12.25 C1.28199666 10.12330632 1.28199666 10.12330632 1.3125 7 C1.05734322 4.5504949 0.72236126 2.3476741 0 0 Z " fill="#D3795A" transform="translate(42,90)"/>
<path d="M0 0 C2.64 0 5.28 0 8 0 C9.3463268 2.69265361 9.12962636 4.80114249 9.1328125 7.8125 C9.13410156 8.97007813 9.13539063 10.12765625 9.13671875 11.3203125 C9.13285156 12.53460938 9.12898437 13.74890625 9.125 15 C9.12886719 16.21429688 9.13273438 17.42859375 9.13671875 18.6796875 C9.13542969 19.83726563 9.13414062 20.99484375 9.1328125 22.1875 C9.13168457 23.25355469 9.13055664 24.31960937 9.12939453 25.41796875 C9 28 9 28 8 30 C5.66705225 30.04241723 3.33297433 30.04092937 1 30 C0 29 0 29 -0.11352539 26.22436523 C-0.10828857 25.01466064 -0.10305176 23.80495605 -0.09765625 22.55859375 C-0.09443359 21.25341797 -0.09121094 19.94824219 -0.08789062 18.60351562 C-0.07953401 17.2148431 -0.07106905 15.82617123 -0.0625 14.4375 C-0.05748666 13.04492344 -0.05292347 11.65234519 -0.04882812 10.25976562 C-0.03699434 6.8398013 -0.0205088 3.41992156 0 0 Z " fill="#E06736" transform="translate(181,103)"/>
<path d="M0 0 C4.1148249 3.06423131 5.9953955 5.97697752 7 11 C6.67 13.31 6.34 15.62 6 18 C0.72 18 -4.56 18 -10 18 C-6.62486722 22.16606483 -6.62486722 22.16606483 -3.421875 22.390625 C-2.54015625 22.34421875 -1.6584375 22.2978125 -0.75 22.25 C0.58804688 22.19585937 0.58804688 22.19585937 1.953125 22.140625 C2.62859375 22.09421875 3.3040625 22.0478125 4 22 C4.33 23.98 4.66 25.96 5 28 C0.21767028 30.82438767 -4.5985269 30.51366163 -10 30 C-14.27381381 28.30828203 -16.00330407 26.09322665 -18 22 C-19.87903066 16.87537092 -19.59234048 11.75321301 -17.375 6.8125 C-13.33574279 -0.42157041 -7.77495554 -2.46732906 0 0 Z M-9 2 C-9 2.66 -9 3.32 -9 4 C-6.69 4.66 -4.38 5.32 -2 6 C-1.67 7.98 -1.34 9.96 -1 12 C-6.445 12.495 -6.445 12.495 -12 13 C-12.33 11.35 -12.66 9.7 -13 8 C-12.34 8 -11.68 8 -11 8 C-11 6.68 -11 5.36 -11 4 C-12.32 4.33 -13.64 4.66 -15 5 C-16.86754064 10.71934321 -17.9164321 15.7161183 -16.25 21.6875 C-14.18393918 25.50971252 -12.13537898 27.62154034 -8 29 C-6.60560336 29.06665376 -5.20830125 29.08538199 -3.8125 29.0625 C-2.554375 29.041875 -1.29625 29.02125 0 29 C0 28.34 0 27.68 0 27 C0.99 27 1.98 27 3 27 C3 26.01 3 25.02 3 24 C2.16855469 23.99742188 1.33710938 23.99484375 0.48046875 23.9921875 C-0.60621094 23.95351562 -1.69289062 23.91484375 -2.8125 23.875 C-3.89144531 23.85179688 -4.97039062 23.82859375 -6.08203125 23.8046875 C-7.04496094 23.53914063 -8.00789062 23.27359375 -9 23 C-9.99 21.02 -10.98 19.04 -12 17 C-6.39 17 -0.78 17 5 17 C5.46852221 9.47362495 5.46852221 9.47362495 2 3 C-0.40545638 1.79727181 -1.94996953 1.89928528 -4.625 1.9375 C-5.44226563 1.94652344 -6.25953125 1.95554687 -7.1015625 1.96484375 C-7.72804687 1.97644531 -8.35453125 1.98804687 -9 2 Z M-7 6 C-8.81299492 7.22954016 -8.81299492 7.22954016 -10 9 C-10 9.66 -10 10.32 -10 11 C-7.36 11 -4.72 11 -2 11 C-2.33 9.68 -2.66 8.36 -3 7 C-4.83700789 6.22757731 -4.83700789 6.22757731 -7 6 Z " fill="#D17753" transform="translate(242,103)"/>
<path d="M0 0 C1.65 0 3.3 0 5 0 C6.65 2.97 8.3 5.94 10 9 C10.33 6.03 10.66 3.06 11 0 C12.65 0 14.3 0 16 0 C16 6.93 16 13.86 16 21 C14.35 21 12.7 21 11 21 C9.19921875 18.8125 9.19921875 18.8125 7.6875 16 C7.17574219 15.071875 6.66398438 14.14375 6.13671875 13.1875 C5.76160156 12.465625 5.38648438 11.74375 5 11 C4.67 14.3 4.34 17.6 4 21 C2.68 21 1.36 21 0 21 C0 14.07 0 7.14 0 0 Z " fill="#3B506E" transform="translate(200,138)"/>
<path d="M0 0 C1.65 0 3.3 0 5 0 C6.65 2.97 8.3 5.94 10 9 C10.33 6.03 10.66 3.06 11 0 C12.65 0 14.3 0 16 0 C16 6.93 16 13.86 16 21 C14.35 21 12.7 21 11 21 C9.19921875 18.8125 9.19921875 18.8125 7.6875 16 C7.17574219 15.071875 6.66398438 14.14375 6.13671875 13.1875 C5.76160156 12.465625 5.38648438 11.74375 5 11 C4.67 14.3 4.34 17.6 4 21 C2.68 21 1.36 21 0 21 C0 14.07 0 7.14 0 0 Z " fill="#364B69" transform="translate(168,138)"/>
<path d="M0 0 C1.12921875 0.14695313 1.12921875 0.14695313 2.28125 0.296875 C2.25412593 6.91514839 1.33220373 11.6873484 -2.953125 16.8671875 C-4.71875 18.296875 -4.71875 18.296875 -8.59375 18.796875 C-9.625 18.631875 -10.65625 18.466875 -11.71875 18.296875 C-12.4303125 19.7509375 -12.4303125 19.7509375 -13.15625 21.234375 C-14.71875 24.296875 -14.71875 24.296875 -15.71875 25.296875 C-19.21875 25.421875 -19.21875 25.421875 -22.71875 25.296875 C-23.71875 24.296875 -23.71875 24.296875 -23.78125 20.734375 C-23.760625 19.6 -23.74 18.465625 -23.71875 17.296875 C-23.12707031 17.12671875 -22.53539062 16.9565625 -21.92578125 16.78125 C-13.08056268 14.06852391 -9.36696701 10.18500277 -4.5625 2.34375 C-2.71875 0.296875 -2.71875 0.296875 0 0 Z " fill="#F4AC8E" transform="translate(73.71875,132.703125)"/>
<path d="M0 0 C10.21326398 -0.60793238 10.21326398 -0.60793238 13.75 2.125 C15.68718109 6.5805165 14.48162229 9.55513312 13 14 C13.99 15.485 13.99 15.485 15 17 C15 18.32 15 19.64 15 21 C13.35 21 11.7 21 10 21 C7 15.25 7 15.25 7 13 C6.34 13 5.68 13 5 13 C5 15.64 5 18.28 5 21 C3.35 21 1.7 21 0 21 C0 14.07 0 7.14 0 0 Z M5 4 C5 5.65 5 7.3 5 9 C6.65 8.67 8.3 8.34 10 8 C9.67 7.01 9.34 6.02 9 5 C6.98491642 4.26676204 6.98491642 4.26676204 5 4 Z " fill="#384C6B" transform="translate(116,138)"/>
<path d="M0 0 C0.33 1.65 0.66 3.3 1 5 C-3.455 5.495 -3.455 5.495 -8 6 C-8.93380961 10.53140653 -8.93380961 10.53140653 -8 15 C-6.35 15.33 -4.7 15.66 -3 16 C-3 15.01 -3 14.02 -3 13 C-4.32 13 -5.64 13 -7 13 C-7 11.68 -7 10.36 -7 9 C-4.03 9 -1.06 9 2 9 C2 12.63 2 16.26 2 20 C-1.72484805 21.24161602 -5.13627918 21.66278252 -9 21 C-12.28955993 18.62031835 -13.67987687 16.98171093 -14.9375 13.125 C-15.02951655 8.52417241 -14.37640561 4.70674296 -11.4375 1.0625 C-7.69394438 -0.5693063 -4.02355679 -0.23212828 0 0 Z " fill="#394E6D" transform="translate(235,138)"/>
<path d="M0 0 C1.98 0 3.96 0 6 0 C6.33 1.65 6.66 3.3 7 5 C8.32 5 9.64 5 11 5 C11 6.98 11 8.96 11 11 C9.68 11 8.36 11 7 11 C7 13.64 7 16.28 7 19 C8.32 19 9.64 19 11 19 C11 20.65 11 22.3 11 24 C8.17116253 25.41441874 6.12623255 25.31900332 3 25 C0.82967857 22.81453679 0.05690587 21.50077164 -0.29296875 18.421875 C-0.25816406 17.54015625 -0.22335938 16.6584375 -0.1875 15.75 C-0.16042969 14.85796875 -0.13335937 13.9659375 -0.10546875 13.046875 C-0.07066406 12.37140625 -0.03585938 11.6959375 0 11 C-0.66 11 -1.32 11 -2 11 C-2 9.02 -2 7.04 -2 5 C-1.34 5 -0.68 5 0 5 C0 3.35 0 1.7 0 0 Z " fill="#D07857" transform="translate(137,95)"/>
<path d="M0 0 C-0.33 2.31 -0.66 4.62 -1 7 C-3.01822917 6.70703125 -5.03645833 6.4140625 -7.0546875 6.12109375 C-9.08140667 5.8315703 -9.08140667 5.8315703 -11 7 C-10.67 8.32 -10.34 9.64 -10 11 C-12.38564077 10.42415568 -14.66682784 9.77772405 -17 9 C-16.89308764 11.41736836 -16.89308764 11.41736836 -16 14 C-13.72210042 15.68257823 -13.72210042 15.68257823 -10.9375 16.8125 C-9.55884766 17.44091797 -9.55884766 17.44091797 -8.15234375 18.08203125 C-7.08693359 18.53642578 -7.08693359 18.53642578 -6 19 C-6 21.31 -6 23.62 -6 26 C-8.76452033 27.38226016 -11.0461363 27.09525387 -14.125 27.0625 C-15.22070312 27.05347656 -16.31640625 27.04445313 -17.4453125 27.03515625 C-18.70988281 27.01775391 -18.70988281 27.01775391 -20 27 C-20 26.01 -20 25.02 -20 24 C-16.37 24.33 -12.74 24.66 -9 25 C-8.67 23.68 -8.34 22.36 -8 21 C-8.92232422 20.51080078 -8.92232422 20.51080078 -9.86328125 20.01171875 C-11.07564453 19.35623047 -11.07564453 19.35623047 -12.3125 18.6875 C-13.11300781 18.25824219 -13.91351563 17.82898438 -14.73828125 17.38671875 C-16.90449014 16.05855959 -18.45092569 15.00842126 -20 13 C-20.68880655 9.93481083 -20.58893897 7.0797726 -20 4 C-14.72010177 -2.8495977 -7.69552624 -3.73116424 0 0 Z " fill="#EA642F" transform="translate(133,100)"/>
<path d="M0 0 C1.65 0 3.3 0 5 0 C6.34394393 3.32916061 7.6756429 6.66299984 9 10 C9.46212891 11.15822266 9.46212891 11.15822266 9.93359375 12.33984375 C11.11128903 15.36578809 12 17.72330879 12 21 C10.35 21 8.7 21 7 21 C6.67 19.35 6.34 17.7 6 16 C4.02 16.33 2.04 16.66 0 17 C-0.33 18.32 -0.66 19.64 -1 21 C-2.65 21 -4.3 21 -6 21 C-5.34065816 16.13451192 -4.03428754 11.74092364 -2.4375 7.125 C-2.20353516 6.43664062 -1.96957031 5.74828125 -1.72851562 5.0390625 C-1.15647501 3.35796355 -0.57881544 1.67877837 0 0 Z M2 9 C2 9.66 2 10.32 2 11 C2.66 11 3.32 11 4 11 C4 10.34 4 9.68 4 9 C3.34 9 2.68 9 2 9 Z " fill="#304868" transform="translate(141,138)"/>
<path d="M0 0 C1.65 0 3.3 0 5 0 C5 0.99 5 1.98 5 3 C5.680625 2.505 6.36125 2.01 7.0625 1.5 C10.59465009 -0.30365111 13.08636991 -0.23021353 17 0 C15.02 0.99 15.02 0.99 13 2 C13.33 2.66 13.66 3.32 14 4 C10.535 5.485 10.535 5.485 7 7 C6.67 13.6 6.34 20.2 6 27 C4.02 27 2.04 27 0 27 C0 18.09 0 9.18 0 0 Z " fill="#E96430" transform="translate(196,104)"/>
<path d="M0 0 C2.4375 2.0625 2.4375 2.0625 4 4 C3.67 4.66 3.34 5.32 3 6 C1.9790625 5.01 1.9790625 5.01 0.9375 4 C-2.67917361 1.53758392 -4.70677141 1.51397412 -9 2 C-9.66 2.66 -10.32 3.32 -11 4 C-11.99 4 -12.98 4 -14 4 C-14 3.01 -14 2.02 -14 1 C-15.65 1 -17.3 1 -19 1 C-19 9.91 -19 18.82 -19 28 C-17.02 28 -15.04 28 -13 28 C-13.02094727 27.40985107 -13.04189453 26.81970215 -13.06347656 26.21166992 C-13.14663683 23.53712001 -13.19865691 20.86284185 -13.25 18.1875 C-13.28351563 17.25873047 -13.31703125 16.32996094 -13.3515625 15.37304688 C-13.37089844 14.0340332 -13.37089844 14.0340332 -13.390625 12.66796875 C-13.41157227 11.84578857 -13.43251953 11.0236084 -13.45410156 10.17651367 C-13 8 -13 8 -11.14746094 6.2199707 C-8.57906714 4.76086841 -6.90843139 4.75763072 -4 5 C-2.7736243 7.45275141 -2.88584686 9.0505781 -2.90234375 11.7890625 C-2.90556641 12.73007813 -2.90878906 13.67109375 -2.91210938 14.640625 C-2.92048828 15.62546875 -2.92886719 16.6103125 -2.9375 17.625 C-2.94201172 18.61757812 -2.94652344 19.61015625 -2.95117188 20.6328125 C-2.96297855 23.0886016 -2.979446 25.54427104 -3 28 C-0.69 28 1.62 28 4 28 C4 21.4 4 14.8 4 8 C4.33 8 4.66 8 5 8 C5.02887814 11.47914941 5.04675687 14.95826831 5.0625 18.4375 C5.07087891 19.43072266 5.07925781 20.42394531 5.08789062 21.44726562 C5.09272461 22.86362305 5.09272461 22.86362305 5.09765625 24.30859375 C5.10551147 25.62041626 5.10551147 25.62041626 5.11352539 26.95874023 C5 29 5 29 4 30 C0.5 30.125 0.5 30.125 -3 30 C-4.61780157 28.38219843 -4.22272147 26.54364482 -4.31640625 24.30859375 C-4.37924805 22.89223633 -4.37924805 22.89223633 -4.44335938 21.44726562 C-4.48267578 20.45404297 -4.52199219 19.46082031 -4.5625 18.4375 C-4.60568359 17.44041016 -4.64886719 16.44332031 -4.69335938 15.41601562 C-4.79980298 12.9441585 -4.90181928 10.4721969 -5 8 C-6.66611905 7.957279 -8.33382885 7.95936168 -10 8 C-11.45942841 9.22750423 -11.45942841 9.22750423 -11.0625 12.9296875 C-11.03832606 15.41557424 -10.99959534 17.90101947 -10.9609375 20.38671875 C-10.95320312 21.18464844 -10.94546875 21.98257813 -10.9375 22.8046875 C-10.92589844 23.53671387 -10.91429687 24.26874023 -10.90234375 25.02294922 C-11 27 -11 27 -12 30 C-14.33294775 30.04241723 -16.66702567 30.04092937 -19 30 C-20 29 -20 29 -20.11352539 26.22436523 C-20.10828857 25.01466064 -20.10305176 23.80495605 -20.09765625 22.55859375 C-20.09443359 21.25341797 -20.09121094 19.94824219 -20.08789062 18.60351562 C-20.07953401 17.2148431 -20.07106905 15.82617123 -20.0625 14.4375 C-20.05748666 13.04492344 -20.05292347 11.65234519 -20.04882812 10.25976562 C-20.03699434 6.8398013 -20.0205088 3.41992156 -20 0 C-16.66666667 0 -13.33333333 0 -10 0 C-6.19426871 -1.2685771 -3.89430952 -0.88817586 0 0 Z " fill="#CB805D" transform="translate(215,103)"/>
<path d="M0 0 C5.28 0 10.56 0 16 0 C15.67 1.65 15.34 3.3 15 5 C13.35 5 11.7 5 10 5 C10 10.28 10 15.56 10 21 C8.35 20.67 6.7 20.34 5 20 C5 15.38 5 10.76 5 6 C3.35 5.67 1.7 5.34 0 5 C0 3.35 0 1.7 0 0 Z " fill="#405674" transform="translate(96,138)"/>
<path d="M0 0 C0 9.9 0 19.8 0 30 C-1.32 30 -2.64 30 -4 30 C-4 21.75 -4 13.5 -4 5 C-5.32 5 -6.64 5 -8 5 C-8 5.66 -8 6.32 -8 7 C-9.32 7.33 -10.64 7.66 -12 8 C-12 6.35 -12 4.7 -12 3 C-7.32097716 0.7981069 -5.37483542 0 0 0 Z " fill="#EC642E" transform="translate(104,100)"/>
<path d="M0 0 C2.475 0.495 2.475 0.495 5 1 C5 2.65 5 4.3 5 6 C4.01 6.495 4.01 6.495 3 7 C3 9.64 3 12.28 3 15 C3.66 15.33 4.32 15.66 5 16 C5.33 15.01 5.66 14.02 6 13 C6.33 13.99 6.66 14.98 7 16 C10.3 16 13.6 16 17 16 C16.67 16.99 16.34 17.98 16 19 C14.02 18.67 12.04 18.34 10 18 C9.71125 18.61875 9.4225 19.2375 9.125 19.875 C8 22 8 22 6 24 C4.02 23.67 2.04 23.34 0 23 C0 15.41 0 7.82 0 0 Z M5 0 C6.98 0 8.96 0 11 0 C11 0.33 11 0.66 11 1 C9.02 1 7.04 1 5 1 C5 0.67 5 0.34 5 0 Z " fill="#F2885A" transform="translate(51,112)"/>
<path d="M0 0 C2.64 0 5.28 0 8 0 C8 9.9 8 19.8 8 30 C12.29 30 16.58 30 21 30 C21 32.64 21 35.28 21 38 C14.07 38 7.14 38 0 38 C0 25.46 0 12.92 0 0 Z M2 1 C0.62682912 2.14588101 0.62682912 2.14588101 0.88647461 5.23461914 C0.88663369 6.66814126 0.89232593 8.10166912 0.90234375 9.53515625 C0.9037587 10.28840683 0.90517365 11.04165741 0.90663147 11.81773376 C0.91224624 14.2326956 0.92480117 16.64756601 0.9375 19.0625 C0.9425131 20.69596221 0.94707634 22.32942586 0.95117188 23.96289062 C0.96137125 27.9753243 0.98094355 31.98755936 1 36 C6.94 36 12.88 36 19 36 C19.33 34.68 19.66 33.36 20 32 C19.67 31.67 19.34 31.34 19 31 C15.04 31 11.08 31 7 31 C7 21.1 7 11.2 7 1 C5.35 1 3.7 1 2 1 Z " fill="#D16D49" transform="translate(158,95)"/>
<path d="M0 0 C0.33 0 0.66 0 1 0 C1 11.88 1 23.76 1 36 C7.79072791 35.81692087 7.79072791 35.81692087 10.1875 32.4375 C10.785625 31.633125 11.38375 30.82875 12 30 C13.32 30 14.64 30 16 30 C15.56560831 34.92310579 13.4884897 37.58903229 10 41 C6.6875 41.875 6.6875 41.875 4 42 C4 41.34 4 40.68 4 40 C3.34 40 2.68 40 2 40 C2 43.3 2 46.6 2 50 C1.01 50.495 1.01 50.495 0 51 C0 34.17 0 17.34 0 0 Z M12 33 C11.67 33.66 11.34 34.32 11 35 C11.66 35 12.32 35 13 35 C12.67 34.34 12.34 33.68 12 33 Z M10 35 C11 37 11 37 11 37 Z M8 37 C9 39 9 39 9 39 Z M5 39 C5.66 39.66 6.32 40.32 7 41 C7.33 40.34 7.66 39.68 8 39 C7.01 39 6.02 39 5 39 Z " fill="#C8806D" transform="translate(49,100)"/>
<path d="M0 0 C1.32 0 2.64 0 4 0 C4 10.56 4 21.12 4 32 C1.36 32 -1.28 32 -4 32 C-4 24.74 -4 17.48 -4 10 C-4.66 10 -5.32 10 -6 10 C-6 8.68 -6 7.36 -6 6 C-5.34 6 -4.68 6 -4 6 C-3.71125 5.38125 -3.4225 4.7625 -3.125 4.125 C-2 2 -2 2 0 0 Z M-1.140625 3.73046875 C-4.02954935 8.81036303 -3.16976942 13.61229786 -2.75 19.3125 C-2.68425781 20.43462891 -2.61851563 21.55675781 -2.55078125 22.71289062 C-2.38611019 25.47701194 -2.20190641 28.2383902 -2 31 C-0.35 31 1.3 31 3 31 C3 21.43 3 11.86 3 2 C0.80045838 1.79044421 0.80045838 1.79044421 -1.140625 3.73046875 Z " fill="#D1714D" transform="translate(28,106)"/>
<path d="M0 0 C2.64 0 5.28 0 8 0 C7.67 0.99 7.34 1.98 7 3 C5.68 3 4.36 3 3 3 C3 5.31 3 7.62 3 10 C3.9590625 9.7215625 3.9590625 9.7215625 4.9375 9.4375 C5.618125 9.293125 6.29875 9.14875 7 9 C8 10 8 10 8.0625 12.5625 C8.041875 13.366875 8.02125 14.17125 8 15 C7.67 14.34 7.34 13.68 7 13 C6.34 13 5.68 13 5 13 C5 15.64 5 18.28 5 21 C3.35 21 1.7 21 0 21 C0 14.07 0 7.14 0 0 Z " fill="#304664" transform="translate(116,138)"/>
<path d="M0 0 C1.32 0 2.64 0 4 0 C4.103125 0.639375 4.20625 1.27875 4.3125 1.9375 C4.539375 2.618125 4.76625 3.29875 5 4 C5.99 4.33 6.98 4.66 8 5 C8 5.66 8 6.32 8 7 C6.68 7 5.36 7 4 7 C4 10.63 4 14.26 4 18 C5.32 18 6.64 18 8 18 C8 18.99 8 19.98 8 21 C6.35 21.33 4.7 21.66 3 22 C-0.53286034 17.43672206 -0.32374517 13.50366792 0 8 C-0.66 8 -1.32 8 -2 8 C-1.33333333 5.33333333 -0.66666667 2.66666667 0 0 Z " fill="#E96634" transform="translate(138,97)"/>
<path d="M0 0 C1.65 0 3.3 0 5 0 C5 6.93 5 13.86 5 21 C3.35 21 1.7 21 0 21 C0 14.07 0 7.14 0 0 Z " fill="#374C69" transform="translate(189,138)"/>
<path d="M0 0 C1.65 0 3.3 0 5 0 C5 6.93 5 13.86 5 21 C3.35 21 1.7 21 0 21 C0 14.07 0 7.14 0 0 Z " fill="#344967" transform="translate(157,138)"/>
<path d="M0 0 C3.1875 -0.0625 3.1875 -0.0625 7 1 C9.13056077 3.7950426 10.59235109 6.78900363 12 10 C10.41676312 10.027193 8.83338938 10.04648306 7.25 10.0625 C5.92742188 10.07990234 5.92742188 10.07990234 4.578125 10.09765625 C2.2181162 10.00826198 0.25501476 9.66912821 -2 9 C-2.25 3.375 -2.25 3.375 0 0 Z " fill="#FBC2A8" transform="translate(52,91)"/>
<path d="M0 0 C1.65 0 3.3 0 5 0 C6.875 2.375 6.875 2.375 8 5 C7.67 5.66 7.34 6.32 7 7 C6.01 6.67 5.02 6.34 4 6 C4.33 6.99 4.66 7.98 5 9 C4.91426773 11.06587115 4.76166465 13.12946525 4.5625 15.1875 C4.46066406 16.27417969 4.35882813 17.36085937 4.25390625 18.48046875 C4.17011719 19.31191406 4.08632812 20.14335937 4 21 C2.68 21 1.36 21 0 21 C0 14.07 0 7.14 0 0 Z " fill="#3D536C" transform="translate(168,138)"/>
<path d="M0 0 C0.33 0 0.66 0 1 0 C1.02505615 0.65073486 1.0501123 1.30146973 1.07592773 1.97192383 C1.19193702 4.91898046 1.31464115 7.8657213 1.4375 10.8125 C1.47681641 11.83666016 1.51613281 12.86082031 1.55664062 13.91601562 C1.59853516 14.89892578 1.64042969 15.88183594 1.68359375 16.89453125 C1.73858032 18.25348511 1.73858032 18.25348511 1.79467773 19.63989258 C1.9208205 22.15048782 1.9208205 22.15048782 3 25 C5.01508358 25.73323796 5.01508358 25.73323796 7 26 C6.98839844 24.87722656 6.97679687 23.75445312 6.96484375 22.59765625 C6.91048749 14.98693084 6.90182265 7.5499693 8 0 C8.33 0 8.66 0 9 0 C9.02891949 4.29165262 9.04677118 8.58328036 9.0625 12.875 C9.07087891 14.09832031 9.07925781 15.32164063 9.08789062 16.58203125 C9.09111328 17.74863281 9.09433594 18.91523437 9.09765625 20.1171875 C9.10289307 21.19597168 9.10812988 22.27475586 9.11352539 23.38623047 C9 26 9 26 8 28 C5.66705225 28.04241723 3.33297433 28.04092937 1 28 C0 27 0 27 -0.11352539 24.40795898 C-0.10828857 23.28204346 -0.10305176 22.15612793 -0.09765625 20.99609375 C-0.09443359 19.78115234 -0.09121094 18.56621094 -0.08789062 17.31445312 C-0.07951172 16.03505859 -0.07113281 14.75566406 -0.0625 13.4375 C-0.05798828 12.15423828 -0.05347656 10.87097656 -0.04882812 9.54882812 C-0.03699545 6.36583978 -0.02051068 3.18294238 0 0 Z " fill="#C1876A" transform="translate(181,105)"/>
<path d="M0 0 C4.40147657 0.50302589 6.75395419 2.02445801 10 5 C11.73631636 8.47263273 11.60190402 12.21193013 11 16 C8.81840855 18.75569447 7.12822506 20.43588747 4 22 C2.21140489 22.12207871 0.41771619 22.17548448 -1.375 22.1875 C-2.80972656 22.20876953 -2.80972656 22.20876953 -4.2734375 22.23046875 C-7.03010017 21.99745572 -8.64947395 21.40920164 -11 20 C-10.505 18.515 -10.505 18.515 -10 17 C-10 17.66 -10 18.32 -10 19 C-7.91695462 19.05418326 -5.83350232 19.09287551 -3.75 19.125 C-2.58984375 19.14820313 -1.4296875 19.17140625 -0.234375 19.1953125 C2.84681133 19.00925052 4.4785909 18.71695953 7 17 C8.26237731 14.47524538 8.09856404 12.68799534 8.0625 9.875 C8.05347656 8.96492188 8.04445312 8.05484375 8.03515625 7.1171875 C8.02355469 6.41851562 8.01195312 5.71984375 8 5 C7.236875 4.9175 6.47375 4.835 5.6875 4.75 C2.47626739 3.85384206 1.70625501 2.78388975 0 0 Z " fill="#D27553" transform="translate(123,111)"/>
<path d="M0 0 C-0.33 2.31 -0.66 4.62 -1 7 C-3.01822917 6.70703125 -5.03645833 6.4140625 -7.0546875 6.12109375 C-9.08140667 5.8315703 -9.08140667 5.8315703 -11 7 C-10.67 8.32 -10.34 9.64 -10 11 C-11.32 10.67 -12.64 10.34 -14 10 C-14 8.35 -14 6.7 -14 5 C-11.01002175 3.50501087 -8.29957225 3.88422554 -5 4 C-4.01 4.33 -3.02 4.66 -2 5 C-2 3.68 -2 2.36 -2 1 C-3.74991334 0.97284617 -5.49994945 0.95353449 -7.25 0.9375 C-8.22453125 0.92589844 -9.1990625 0.91429688 -10.203125 0.90234375 C-12.7016969 0.98958439 -14.68214975 1.0728599 -17 2 C-18.3045656 4.99615946 -18.3045656 4.99615946 -19 8 C-19.8125 6.3125 -19.8125 6.3125 -20 4 C-14.4222632 -2.66229673 -7.87565591 -3.81849983 0 0 Z " fill="#CB795A" transform="translate(133,100)"/>
<path d="M0 0 C1.8871875 0.061875 1.8871875 0.061875 3.8125 0.125 C3.8125 0.455 3.8125 0.785 3.8125 1.125 C1.5025 1.125 -0.8075 1.125 -3.1875 1.125 C-3.1875 1.785 -3.1875 2.445 -3.1875 3.125 C-1.7953125 3.00125 -1.7953125 3.00125 -0.375 2.875 C2.8125 3.125 2.8125 3.125 4.75 4.8125 C5.8125 7.125 5.8125 7.125 4.8125 12.125 C1.1825 12.125 -2.4475 12.125 -6.1875 12.125 C-6.5175 10.475 -6.8475 8.825 -7.1875 7.125 C-6.5275 7.125 -5.8675 7.125 -5.1875 7.125 C-5.8475 5.475 -6.5075 3.825 -7.1875 2.125 C-4.09861478 0.06574319 -3.47814073 -0.1140374 0 0 Z M-1.1875 5.125 C-3.00049492 6.35454016 -3.00049492 6.35454016 -4.1875 8.125 C-4.1875 8.785 -4.1875 9.445 -4.1875 10.125 C-1.5475 10.125 1.0925 10.125 3.8125 10.125 C3.4825 8.805 3.1525 7.485 2.8125 6.125 C0.97549211 5.35257731 0.97549211 5.35257731 -1.1875 5.125 Z " fill="#DE6636" transform="translate(236.1875,103.875)"/>
<path d="M0 0 C2.5 -0.3125 2.5 -0.3125 5 0 C7 2 7 2 7.25 5 C7 8 7 8 5 10 C1.875 9.625 1.875 9.625 -1 9 C-1.625 6.1875 -1.625 6.1875 -2 3 C-1.34 2.01 -0.68 1.02 0 0 Z " fill="#D17F60" transform="translate(183,90)"/>
<path d="M0 0 C1.32 0 2.64 0 4 0 C4 6.6 4 13.2 4 20 C2.68 20 1.36 20 0 20 C-0.33 18.35 -0.66 16.7 -1 15 C-0.34 15 0.32 15 1 15 C0.67 10.05 0.34 5.1 0 0 Z " fill="#273A5A" transform="translate(180,138)"/>
<path d="M0 0 C0.125 2.875 0.125 2.875 0 6 C-2 8 -2 8 -5.5625 8.1875 C-9 8 -9 8 -10 7 C-10.04063832 5.33382885 -10.042721 3.66611905 -10 2 C-8.7090864 1.66376204 -7.41723903 1.33110751 -6.125 1 C-5.40570313 0.814375 -4.68640625 0.62875 -3.9453125 0.4375 C-2 0 -2 0 0 0 Z " fill="#F1C4B0" transform="translate(60,150)"/>
<path d="M0 0 C1.32 0 2.64 0 4 0 C4 6.27 4 12.54 4 19 C3.01 19.33 2.02 19.66 1 20 C0.67 13.4 0.34 6.8 0 0 Z " fill="#F0612C" transform="translate(183,105)"/>
<path d="M0 0 C0.639375 0.7425 1.27875 1.485 1.9375 2.25 C5.34158774 5.70327976 9.54650144 7.26323259 14 9 C14 11.31 14 13.62 14 16 C11.23547967 17.38226016 8.9538637 17.09525387 5.875 17.0625 C4.77929688 17.05347656 3.68359375 17.04445313 2.5546875 17.03515625 C1.29011719 17.01775391 1.29011719 17.01775391 0 17 C0 16.01 0 15.02 0 14 C3.63 14.33 7.26 14.66 11 15 C11.33 13.68 11.66 12.36 12 11 C11.38511719 10.67386719 10.77023438 10.34773438 10.13671875 10.01171875 C8.92435547 9.35623047 8.92435547 9.35623047 7.6875 8.6875 C6.88699219 8.25824219 6.08648437 7.82898438 5.26171875 7.38671875 C3.12380108 6.07590567 1.55720753 4.96036806 0 3 C0 2.01 0 1.02 0 0 Z " fill="#D67553" transform="translate(113,110)"/>
<path d="M0 0 C1.32 0.33 2.64 0.66 4 1 C3.21625 1.4125 2.4325 1.825 1.625 2.25 C-1.11507772 4.07671848 -1.73335347 5.07696955 -3 8 C-3.99 8.495 -3.99 8.495 -5 9 C-4.67 12.63 -4.34 16.26 -4 20 C-6.64 20.99 -9.28 21.98 -12 23 C-11.505 21.515 -11.505 21.515 -11 20 C-9.02 19.67 -7.04 19.34 -5 19 C-5.515625 18.113125 -6.03125 17.22625 -6.5625 16.3125 C-8.15819095 12.63547303 -8.17571184 11.70801426 -7 8 C-5.37109375 5.76171875 -5.37109375 5.76171875 -3.4375 3.6875 C-2.79683594 2.99011719 -2.15617187 2.29273437 -1.49609375 1.57421875 C-1.00238281 1.05472656 -0.50867187 0.53523438 0 0 Z " fill="#D0795E" transform="translate(20,97)"/>
<path d="M0 0 C1.32 0 2.64 0 4 0 C3.67 6.27 3.34 12.54 3 19 C2.34 19 1.68 19 1 19 C0.67 12.73 0.34 6.46 0 0 Z " fill="#274368" transform="translate(200,138)"/>
<path d="M0 0 C1.32 1.65 2.64 3.3 4 5 C2.68 5.33 1.36 5.66 0 6 C0.26103516 6.81210938 0.26103516 6.81210938 0.52734375 7.640625 C1.09766505 10.48751809 0.87137301 12.86718522 0.5625 15.75 C0.46066406 16.73484375 0.35882813 17.7196875 0.25390625 18.734375 C0.17011719 19.48203125 0.08632812 20.2296875 0 21 C-1.32 21 -2.64 21 -4 21 C-4 16.38 -4 11.76 -4 7 C-3.67 7 -3.34 7 -3 7 C-3 10.96 -3 14.92 -3 19 C-2.34 19 -1.68 19 -1 19 C-1.01160156 18.04738281 -1.02320313 17.09476563 -1.03515625 16.11328125 C-1.04417969 14.85902344 -1.05320313 13.60476562 -1.0625 12.3125 C-1.07410156 11.07113281 -1.08570313 9.82976562 -1.09765625 8.55078125 C-1.01478673 5.53764546 -0.70839449 2.91724661 0 0 Z " fill="#3B516C" transform="translate(204,138)"/>
<path d="M0 0 C2.51542767 1.85922915 3.07334347 3.22434472 4.0625 6.25 C3.98467223 10.91966595 2.64396119 12.33205061 -0.45703125 15.6171875 C-2 17 -2 17 -4 18 C-4.33 18.99 -4.66 19.98 -5 21 C-3.68 20.67 -2.36 20.34 -1 20 C-1.33 20.66 -1.66 21.32 -2 22 C-3.65 21.67 -5.3 21.34 -7 21 C-7 19.35 -7 17.7 -7 16 C-5.68 16 -4.36 16 -3 16 C-3 15.34 -3 14.68 -3 14 C-2.34 13.4225 -1.68 12.845 -1 12.25 C1.28199666 10.12330632 1.28199666 10.12330632 1.3125 7 C1.05734322 4.5504949 0.72236126 2.3476741 0 0 Z " fill="#D37F5F" transform="translate(42,90)"/>
<path d="M0 0 C0.5625 1.9375 0.5625 1.9375 1 4 C0.67 4.33 0.34 4.66 0 5 C-1.65 5 -3.3 5 -5 5 C-5 10.28 -5 15.56 -5 21 C-6.65 20.67 -8.3 20.34 -10 20 C-10 17.36 -10 14.72 -10 12 C-9.67 12 -9.34 12 -9 12 C-9 14.31 -9 16.62 -9 19 C-8.01 19 -7.02 19 -6 19 C-6 13.72 -6 8.44 -6 3 C-4.35 3 -2.7 3 -1 3 C-0.67 2.01 -0.34 1.02 0 0 Z " fill="#5F6C8A" transform="translate(111,138)"/>
<path d="M0 0 C2.4375 2.0625 2.4375 2.0625 4 4 C3.67 4.66 3.34 5.32 3 6 C1.9790625 5.01 1.9790625 5.01 0.9375 4 C-2.67917361 1.53758392 -4.70677141 1.51397412 -9 2 C-9.66 2.66 -10.32 3.32 -11 4 C-11.99 4 -12.98 4 -14 4 C-14 3.01 -14 2.02 -14 1 C-15.65 1 -17.3 1 -19 1 C-19.33 2.32 -19.66 3.64 -20 5 C-20 3.35 -20 1.7 -20 0 C-16.66666667 0 -13.33333333 0 -10 0 C-6.19426871 -1.2685771 -3.89430952 -0.88817586 0 0 Z " fill="#CE7A5C" transform="translate(215,103)"/>
<path d="M0 0 C1.32 0 2.64 0 4 0 C3.67 6.27 3.34 12.54 3 19 C2.34 19 1.68 19 1 19 C0.67 12.73 0.34 6.46 0 0 Z " fill="#274263" transform="translate(168,138)"/>
<path d="M0 0 C3.25 0.0625 3.25 0.0625 7 1 C8.8544092 3.2231534 9.78559244 5.32830337 11 8 C9.68 8 8.36 8 7 8 C7 6.35 7 4.7 7 3 C4.55519921 3.18828772 4.55519921 3.18828772 2 4 C0.77472052 5.95021083 0.77472052 5.95021083 0 8 C-0.99 8.495 -0.99 8.495 -2 9 C-2.25 3.375 -2.25 3.375 0 0 Z " fill="#ECBFAD" transform="translate(52,91)"/>
<path d="M0 0 C3 1 3 1 4.1875 3.3125 C5 6 5 6 5 10 C3.35 10 1.7 10 0 10 C-2.21538462 4.58461538 -2.21538462 4.58461538 -1.125 1.625 C-0.75375 1.08875 -0.3825 0.5525 0 0 Z " fill="#3F5370" transform="translate(126,149)"/>
<path d="M0 0 C2.64 0 5.28 0 8 0 C8.33 1.65 8.66 3.3 9 5 C6.03 4.67 3.06 4.34 0 4 C0 2.68 0 1.36 0 0 Z " fill="#40516D" transform="translate(227,138)"/>
<path d="M0 0 C0.33 0 0.66 0 1 0 C1 2.64 1 5.28 1 8 C-5.6 8 -12.2 8 -19 8 C-19 7.67 -19 7.34 -19 7 C-10.09 6.01 -10.09 6.01 -1 5 C-0.67 3.35 -0.34 1.7 0 0 Z " fill="#9BAF91" transform="translate(178,125)"/>
<path d="M0 0 C1.175625 0.0825 2.35125 0.165 3.5625 0.25 C5.5625 3.25 5.5625 3.25 5.5625 7.25 C1.9325 7.25 -1.6975 7.25 -5.4375 7.25 C-4.40543117 0.32039499 -4.40543117 0.32039499 0 0 Z M-1.4375 1.25 C-3.25049492 2.47954016 -3.25049492 2.47954016 -4.4375 4.25 C-4.4375 4.91 -4.4375 5.57 -4.4375 6.25 C-1.7975 6.25 0.8425 6.25 3.5625 6.25 C3.2325 4.93 2.9025 3.61 2.5625 2.25 C0.72549211 1.47757731 0.72549211 1.47757731 -1.4375 1.25 Z " fill="#CB7754" transform="translate(236.4375,107.75)"/>
<path d="M0 0 C0 2.64 0 5.28 0 8 C-1.65 8 -3.3 8 -5 8 C-5.75 6.25 -5.75 6.25 -6 4 C-2.77777778 0 -2.77777778 0 0 0 Z " fill="#F2A382" transform="translate(76,110)"/>
<path d="M0 0 C1.20272819 2.40545638 1.10071472 3.94996953 1.0625 6.625 C1.05347656 7.44226563 1.04445313 8.25953125 1.03515625 9.1015625 C1.02355469 9.72804687 1.01195312 10.35453125 1 11 C4.465 12.485 4.465 12.485 8 14 C8 15.32 8 16.64 8 18 C7.01 17.67 6.02 17.34 5 17 C5.33 16.67 5.66 16.34 6 16 C3.69 15.01 1.38 14.02 -1 13 C-1.02686553 11.02090602 -1.04633375 9.04171029 -1.0625 7.0625 C-1.07410156 5.96035156 -1.08570313 4.85820313 -1.09765625 3.72265625 C-1 1 -1 1 0 0 Z " fill="#D16B49" transform="translate(9,119)"/>
<path d="M0 0 C3.63 0 7.26 0 11 0 C11 0.33 11 0.66 11 1 C9.02 1.33 7.04 1.66 5 2 C4.67 3.32 4.34 4.64 4 6 C2.35 6 0.7 6 -1 6 C-0.67 4.02 -0.34 2.04 0 0 Z " fill="#3B516E" transform="translate(136,153)"/>
<path d="M0 0 C0.99 0.33 1.98 0.66 3 1 C3.73046875 2.84765625 3.73046875 2.84765625 4.1875 5.0625 C4.34605469 5.79597656 4.50460938 6.52945313 4.66796875 7.28515625 C4.83232422 8.13400391 4.83232422 8.13400391 5 9 C3.35 8.67 1.7 8.34 0 8 C-1.125 2.25 -1.125 2.25 0 0 Z " fill="#304463" transform="translate(145,141)"/>
<path d="M0 0 C4.62 0 9.24 0 14 0 C13.67 0.66 13.34 1.32 13 2 C10.67843403 2.40729228 8.3431213 2.74438677 6 3 C6 3.33 6 3.66 6 4 C4.02 4 2.04 4 0 4 C0 2.68 0 1.36 0 0 Z " fill="#253956" transform="translate(97,138)"/>
<path d="M0 0 C1.32 0 2.64 0 4 0 C4 2.64 4 5.28 4 8 C2.35 8 0.7 8 -1 8 C-0.67 5.36 -0.34 2.72 0 0 Z " fill="#DD8D68" transform="translate(62,119)"/>
<path d="M0 0 C0.33 0 0.66 0 1 0 C1 4.95 1 9.9 1 15 C0.01 15 -0.98 15 -2 15 C-2 12.36 -2 9.72 -2 7 C-1.34 7 -0.68 7 0 7 C0 4.69 0 2.38 0 0 Z " fill="#284264" transform="translate(104,142)"/>
<path d="M0 0 C1.32 0 2.64 0 4 0 C5.703125 1.8984375 5.703125 1.8984375 7.25 4.375 C7.77078125 5.18710938 8.2915625 5.99921875 8.828125 6.8359375 C10 9 10 9 10 11 C9.34 11 8.68 11 8 11 C6.4921875 9.3203125 6.4921875 9.3203125 4.875 7.125 C4.33617188 6.40570313 3.79734375 5.68640625 3.2421875 4.9453125 C2 3 2 3 2 1 C1.34 0.67 0.68 0.34 0 0 Z " fill="#D58B6F" transform="translate(66,99)"/>
<path d="M0 0 C0.66 0.33 1.32 0.66 2 1 C2 1.66 2 2.32 2 3 C1.34 3 0.68 3 0 3 C-0.66 5.64 -1.32 8.28 -2 11 C-0.68 11.33 0.64 11.66 2 12 C2 12.33 2 12.66 2 13 C0.02 13 -1.96 13 -4 13 C-3.34 9.37 -2.68 5.74 -2 2 C-1.34 2 -0.68 2 0 2 C0 1.34 0 0.68 0 0 Z " fill="#445876" transform="translate(145,138)"/>
<path d="M0 0 C0.33 0.99 0.66 1.98 1 3 C1.99 3.33 2.98 3.66 4 4 C4 8.62 4 13.24 4 18 C3.01 18.33 2.02 18.66 1 19 C0.67 19.66 0.34 20.32 0 21 C0 20.01 0 19.02 0 18 C0.66 17.67 1.32 17.34 2 17 C2 13.37 2 9.74 2 6 C1.34 5.67 0.68 5.34 0 5 C0 3.35 0 1.7 0 0 Z " fill="#D19074" transform="translate(76,114)"/>
<path d="M0 0 C0.763125 0.639375 1.52625 1.27875 2.3125 1.9375 C6.35052724 5.03645114 9.23423091 5.11576096 14.1875 5.0625 C15.27417969 5.05347656 16.36085937 5.04445312 17.48046875 5.03515625 C18.31191406 5.02355469 19.14335937 5.01195312 20 5 C15.53788858 7.97474094 11.23265126 7.49725487 6 7 C2.875 5.75 2.875 5.75 1 4 C0.1875 1.8125 0.1875 1.8125 0 0 Z " fill="#CF7F63" transform="translate(226,126)"/>
<path d="M0 0 C2.0625 0.4375 2.0625 0.4375 4 1 C4.33 2.32 4.66 3.64 5 5 C3.35 5.33 1.7 5.66 0 6 C-0.38218767 4.34385343 -0.71395102 2.67542976 -1 1 C-0.67 0.67 -0.34 0.34 0 0 Z " fill="#EB6530" transform="translate(184,92)"/>
<path d="M0 0 C2.09350689 3.4019487 2.17942163 6.05272412 2 10 C1.67 10 1.34 10 1 10 C1 8.35 1 6.7 1 5 C0.01 5.33 -0.98 5.66 -2 6 C-2 4.68 -2 3.36 -2 2 C-3.98 2 -5.96 2 -8 2 C-4.91190305 0.23537317 -3.76687864 0 0 0 Z " fill="#E16B3C" transform="translate(42,90)"/>
<path d="M0 0 C0.66 0.33 1.32 0.66 2 1 C1.7525 1.721875 1.505 2.44375 1.25 3.1875 C0.68262931 6.1794348 0.68262931 6.1794348 2.9375 8.8125 C3.618125 9.534375 4.29875 10.25625 5 11 C2 11 2 11 -0.25 8.8125 C-2 6 -2 6 -1.8125 3.25 C-1 1 -1 1 0 0 Z " fill="#D77354" transform="translate(14,137)"/>
<path d="M0 0 C0 0.99 0 1.98 0 3 C-4.455 3.495 -4.455 3.495 -9 4 C-9 3.01 -9 2.02 -9 1 C-2.25 0 -2.25 0 0 0 Z " fill="#EE622E" transform="translate(245,127)"/>
<path d="M0 0 C1.32 0.66 2.64 1.32 4 2 C4 3.65 4 5.3 4 7 C2.35 7 0.7 7 -1 7 C-1.04254356 5.00045254 -1.04080783 2.99958364 -1 1 C-0.67 0.67 -0.34 0.34 0 0 Z " fill="#D78668" transform="translate(55,119)"/>
<path d="M0 0 C0.33 0 0.66 0 1 0 C1.04898438 0.59167969 1.09796875 1.18335937 1.1484375 1.79296875 C1.56456867 6.19104472 2.04965595 9.96928897 4 14 C5.65 14 7.3 14 9 14 C9 14.33 9 14.66 9 15 C6.1875 15.25 6.1875 15.25 3 15 C0.7041008 12.74661745 0.04414005 11.42139031 -0.29296875 8.203125 C-0.25816406 7.22859375 -0.22335938 6.2540625 -0.1875 5.25 C-0.16042969 4.26515625 -0.13335937 3.2803125 -0.10546875 2.265625 C-0.07066406 1.51796875 -0.03585938 0.7703125 0 0 Z " fill="#D5805B" transform="translate(137,105)"/>
<path d="M0 0 C0.33 0.66 0.66 1.32 1 2 C1.804375 1.979375 2.60875 1.95875 3.4375 1.9375 C6 2 6 2 7 3 C8.34747084 3.23075082 9.70377565 3.41153063 11.0625 3.5625 C12.361875 3.706875 13.66125 3.85125 15 4 C15 4.33 15 4.66 15 5 C13.25034642 5.05429959 11.50020213 5.09292823 9.75 5.125 C8.77546875 5.14820313 7.8009375 5.17140625 6.796875 5.1953125 C3.9803502 4.99862781 2.39050964 4.44568916 0 3 C0 2.01 0 1.02 0 0 Z " fill="#CB7C5E" transform="translate(112,128)"/>
<path d="M0 0 C0.99 0 1.98 0 3 0 C2.67 4.62 2.34 9.24 2 14 C1.67 14 1.34 14 1 14 C0.67 9.38 0.34 4.76 0 0 Z " fill="#243D5B" transform="translate(212,138)"/>
<path d="M0 0 C1.32 0 2.64 0 4 0 C4 0.99 4 1.98 4 3 C3.34 3 2.68 3 2 3 C2 4.98 2 6.96 2 9 C0 7 0 7 -0.125 3.375 C-0.08375 2.26125 -0.0425 1.1475 0 0 Z " fill="#2A3F5A" transform="translate(200,138)"/>
<path d="M0 0 C7.42857143 -0.28571429 7.42857143 -0.28571429 11 2 C10.34 2.66 9.68 3.32 9 4 C8.01 4 7.02 4 6 4 C6 3.01 6 2.02 6 1 C4.35 1 2.7 1 1 1 C0.67 2.32 0.34 3.64 0 5 C0 3.35 0 1.7 0 0 Z " fill="#CE724F" transform="translate(195,103)"/>
<path d="M0 0 C2.31 0.66 4.62 1.32 7 2 C7 1.34 7 0.68 7 0 C7.99 0.33 8.98 0.66 10 1 C8 3 8 3 4.5 3.0625 C3.345 3.041875 2.19 3.02125 1 3 C0.01 3.495 0.01 3.495 -1 4 C-0.67 2.68 -0.34 1.36 0 0 Z " fill="#DCA28F" transform="translate(61,148)"/>
<path d="M0 0 C1.32 1.65 2.64 3.3 4 5 C2.68 5.33 1.36 5.66 0 6 C0.33 7.32 0.66 8.64 1 10 C0.34 10 -0.32 10 -1 10 C-0.67 6.7 -0.34 3.4 0 0 Z " fill="#606C89" transform="translate(204,138)"/>
<path d="M0 0 C1.32 0 2.64 0 4 0 C4 0.66 4 1.32 4 2 C3.34 2 2.68 2 2 2 C1.896875 2.61875 1.79375 3.2375 1.6875 3.875 C1 6 1 6 -2 8 C-1.34 5.36 -0.68 2.72 0 0 Z " fill="#354761" transform="translate(141,138)"/>
<path d="M0 0 C0.33 0 0.66 0 1 0 C1 2.64 1 5.28 1 8 C-0.98 8 -2.96 8 -5 8 C-5 7.34 -5 6.68 -5 6 C-3.68 5.67 -2.36 5.34 -1 5 C-0.67 3.35 -0.34 1.7 0 0 Z " fill="#BE9179" transform="translate(178,125)"/>
<path d="M0 0 C1.98 0 3.96 0 6 0 C6 0.99 6 1.98 6 3 C4.02 3 2.04 3 0 3 C0 2.01 0 1.02 0 0 Z " fill="#2C4164" transform="translate(227,138)"/>
<path d="M0 0 C3.63 0.66 7.26 1.32 11 2 C11 2.33 11 2.66 11 3 C7.37 3 3.74 3 0 3 C0 2.01 0 1.02 0 0 Z " fill="#BD6E4F" transform="translate(113,124)"/>
<path d="M0 0 C0 0.99 0 1.98 0 3 C-1.65 3.33 -3.3 3.66 -5 4 C-5.33 3.01 -5.66 2.02 -6 1 C-4 0 -4 0 0 0 Z " fill="#E56734" transform="translate(146,115)"/>
<path d="M0 0 C1.65 0 3.3 0 5 0 C4.649375 0.61875 4.29875 1.2375 3.9375 1.875 C3.628125 2.57625 3.31875 3.2775 3 4 C3.33 4.66 3.66 5.32 4 6 C2.68 5.67 1.36 5.34 0 5 C0 3.35 0 1.7 0 0 Z " fill="#D77A53" transform="translate(119,105)"/>
<path d="M0 0 C1.65 0 3.3 0 5 0 C4.01 0.66 3.02 1.32 2 2 C1.74969023 4.58380177 1.74969023 4.58380177 2 7 C1.01 6.67 0.02 6.34 -1 6 C-0.67 4.02 -0.34 2.04 0 0 Z " fill="#D6704D" transform="translate(182,91)"/>
<path d="M0 0 C1.32 1.65 2.64 3.3 4 5 C3.67 5.66 3.34 6.32 3 7 C2.01 6.67 1.02 6.34 0 6 C-0.33 6.66 -0.66 7.32 -1 8 C-0.67 5.36 -0.34 2.72 0 0 Z " fill="#53657F" transform="translate(172,138)"/>
<path d="M0 0 C0.5775 0.45375 1.155 0.9075 1.75 1.375 C3.7800333 2.84113516 5.73539843 3.94857784 8 5 C5.36 5 2.72 5 0 5 C0 3.35 0 1.7 0 0 Z " fill="#EA8A67" transform="translate(58,123)"/>
</svg>
